<svg width="213" height="33" viewBox="0 0 213 33" fill="none" xmlns="http://www.w3.org/2000/svg">
<path d="M46.7823 31.6279L47.1295 30.4071C47.551 28.962 47.3939 27.6165 46.6914 26.6365C46.0467 25.7312 44.9722 25.1997 43.6662 25.1333L18.9526 24.8177C18.7873 24.8094 18.6468 24.7346 18.5641 24.61C18.4815 24.4854 18.4567 24.3193 18.5146 24.1615C18.5972 23.9207 18.8369 23.7297 19.0849 23.7214L44.0216 23.4058C46.9807 23.2729 50.1794 20.8561 51.3035 17.916L52.7251 14.1787C52.7665 14.079 52.783 13.9711 52.783 13.8631C52.783 13.805 52.7747 13.7468 52.7665 13.6887C51.163 6.38841 44.6746 0.931885 36.9299 0.931885C29.7886 0.931885 23.7218 5.56619 21.548 12.0027C20.1428 10.948 18.3492 10.3832 16.4151 10.5742C12.985 10.9147 10.2326 13.6887 9.89371 17.1353C9.80279 18.0323 9.87718 18.8877 10.0838 19.7016C4.48813 19.8678 0 24.4771 0 30.133C0 30.6479 0.0413271 31.1462 0.107451 31.6445C0.140512 31.8854 0.347148 32.0598 0.586845 32.0598L46.2037 32.0681C46.212 32.0681 46.212 32.0681 46.2203 32.0681C46.4765 32.0598 46.7079 31.8854 46.7823 31.6279Z" fill="white"/>
<path d="M55.0145 14.4528C54.7831 14.4528 54.5599 14.4611 54.3285 14.4694C54.2872 14.4694 54.2541 14.4777 54.221 14.4943C54.1053 14.5358 54.0061 14.6355 53.9731 14.7601L52.9978 18.132C52.5762 19.5771 52.7333 20.9225 53.4358 21.9025C54.0805 22.8078 55.155 23.3393 56.461 23.4058L61.7261 23.7214C61.8831 23.7297 62.0154 23.8044 62.098 23.929C62.1889 24.0536 62.2055 24.2197 62.1559 24.3775C62.0732 24.6183 61.8335 24.8093 61.5856 24.8177L56.1138 25.1333C53.1465 25.2744 49.9395 27.6829 48.8154 30.623L48.4187 31.6611C48.3443 31.8522 48.4848 32.0515 48.6749 32.0598C48.6832 32.0598 48.6832 32.0598 48.6915 32.0598H67.5284C67.7516 32.0598 67.9499 31.9103 68.0161 31.6944C68.3467 30.5233 68.5203 29.2942 68.5203 28.0152C68.5203 20.5322 62.47 14.4528 55.0145 14.4528Z" fill="white"/>
<path d="M89.292 20.5405H92.4081V29.1031H97.8632V31.8439H89.292V20.5405Z" fill="white"/>
<path d="M101.095 26.2212V26.188C101.095 22.9407 103.698 20.3079 107.17 20.3079C110.641 20.3079 113.212 22.9075 113.212 26.1548V26.188C113.212 29.4353 110.608 32.0681 107.137 32.0681C103.665 32.0681 101.095 29.4686 101.095 26.2212ZM110.03 26.2212V26.188C110.03 24.5602 108.856 23.1317 107.137 23.1317C105.434 23.1317 104.293 24.5187 104.293 26.1548V26.188C104.293 27.8158 105.467 29.2443 107.17 29.2443C108.889 29.2443 110.03 27.8574 110.03 26.2212Z" fill="white"/>
<path d="M117.03 26.8856V20.5405H120.196V26.8275C120.196 28.4553 121.014 29.236 122.271 29.236C123.527 29.236 124.345 28.4969 124.345 26.9106V20.5488H127.511V26.8192C127.511 30.4735 125.436 32.0681 122.237 32.0681C119.039 32.0515 117.03 30.4237 117.03 26.8856Z" fill="white"/>
<path d="M132.288 20.5405H136.627C140.645 20.5405 142.975 22.8659 142.975 26.1299V26.1631C142.975 29.427 140.611 31.8522 136.561 31.8522H132.288V20.5405ZM136.677 29.0699C138.545 29.0699 139.777 28.0401 139.777 26.2129V26.1797C139.777 24.3692 138.537 23.3227 136.677 23.3227H135.404V29.0699H136.677Z" fill="white"/>
<path d="M147.505 20.5405H156.514V23.2812H150.629V25.208H155.952V27.8075H150.629V31.8439H147.505V20.5405Z" fill="white"/>
<path d="M160.854 20.5405H163.97V29.1031H169.417V31.8439H160.854V20.5405Z" fill="white"/>
<path d="M177.575 20.4574H180.583L185.377 31.8439H182.03L181.212 29.8257H176.872L176.07 31.8439H172.789L177.575 20.4574ZM180.302 27.384L179.046 24.1699L177.773 27.384H180.302Z" fill="white"/>
<path d="M189.386 20.5405H194.709C196.428 20.5405 197.618 20.9973 198.37 21.7696C199.032 22.4174 199.37 23.2895 199.37 24.4024V24.4356C199.37 26.1631 198.453 27.3092 197.056 27.9072L199.742 31.8522H196.139L193.874 28.4304H192.502V31.8522H189.386V20.5405ZM194.56 25.9638C195.618 25.9638 196.23 25.4488 196.23 24.6266V24.5934C196.23 23.7047 195.585 23.2563 194.543 23.2563H192.502V25.9721H194.56V25.9638Z" fill="white"/>
<path d="M203.867 20.5405H212.918V23.2064H206.958V24.9173H212.356V27.384H206.958V29.1779H213V31.8439H203.867V20.5405Z" fill="white"/>
<path d="M82.4645 27.5501C82.0264 28.5384 81.1089 29.2443 79.8856 29.2443C78.183 29.2443 77.0093 27.8241 77.0093 26.188V26.1548C77.0093 24.527 78.1499 23.1317 79.8526 23.1317C81.1337 23.1317 82.1173 23.929 82.5306 25.0087H85.8202C85.2912 22.3178 82.9438 20.3079 79.8856 20.3079C76.4142 20.3079 73.8105 22.9407 73.8105 26.188V26.2212C73.8105 29.4686 76.3811 32.0681 79.8526 32.0681C82.8199 32.0681 85.1425 30.133 85.7541 27.5418H82.4645V27.5501Z" fill="white"/>
</svg>
