<?xml version="1.0" encoding="utf-8"?>
<svg xmlns="http://www.w3.org/2000/svg" height="512pt" version="1.1" viewBox="0 0 512 512" width="512pt">
<path d="M 0.00 0.00 L 512.00 0.00 L 512.00 512.00 L 0.00 512.00 L 0.00 0.00 Z" fill="transparent" opacity="1.00" stroke="transparent" stroke-width="0.25"/>
<path d="M 181.92 108.34 C 185.39 103.02 187.89 96.73 193.21 92.90 C 194.93 91.66 196.36 93.42 197.44 94.60 C 200.76 98.68 202.59 103.70 204.66 108.47 C 208.75 108.41 212.79 109.55 216.87 109.20 C 221.91 104.82 226.06 99.37 231.71 95.70 C 232.96 95.19 234.90 94.94 235.66 96.37 C 239.25 101.50 239.51 107.98 241.42 113.75 C 247.00 114.62 252.21 117.30 257.83 117.74 C 263.36 115.68 267.44 110.77 272.98 108.57 C 275.64 108.05 276.71 111.07 277.03 113.16 C 277.60 117.14 277.90 121.17 278.63 125.14 C 281.71 125.89 284.57 128.05 287.84 127.72 C 293.04 126.00 297.56 122.39 303.04 121.47 C 304.84 122.28 305.88 124.06 306.18 125.96 C 306.79 130.35 306.11 134.84 306.78 139.22 C 308.78 140.48 311.54 142.77 313.82 140.80 C 327.69 131.36 342.19 121.55 359.06 118.72 C 365.94 118.15 373.72 118.02 379.42 122.56 C 383.48 125.43 384.43 130.63 385.66 135.12 C 387.54 141.92 387.96 148.99 388.26 156.00 C 387.66 167.24 387.20 178.73 383.32 189.42 C 381.44 194.85 374.76 195.02 369.98 195.41 C 368.07 195.78 365.35 194.74 364.32 196.93 C 368.21 201.43 373.09 205.31 378.84 207.10 C 386.64 209.54 394.91 209.86 403.02 209.66 C 406.99 209.44 410.54 207.41 414.24 206.17 C 433.55 199.15 451.79 188.45 472.39 185.57 C 477.56 185.30 482.99 184.43 488.00 186.11 C 491.05 187.10 493.08 189.89 493.77 192.93 C 497.15 205.70 495.54 219.07 494.48 232.03 C 493.72 241.45 496.50 250.61 496.98 259.96 C 498.03 273.65 496.40 287.86 490.40 300.34 C 488.83 303.93 484.76 305.63 481.03 305.52 C 467.82 306.12 455.13 301.74 442.98 297.06 C 429.91 292.27 417.31 286.03 403.78 282.56 C 396.41 280.49 389.04 282.98 381.76 284.12 C 385.61 284.86 389.49 285.53 393.25 286.69 C 397.24 300.57 399.26 316.57 391.69 329.63 C 388.77 335.25 381.60 335.86 375.98 335.85 C 368.53 336.23 361.92 332.26 355.97 328.25 C 354.39 332.28 352.18 336.03 350.75 340.12 C 352.08 345.93 358.31 349.98 357.68 356.24 C 351.62 357.01 345.52 357.30 339.42 357.32 C 337.22 359.72 335.05 362.19 333.48 365.07 C 334.68 368.63 338.49 371.81 337.18 375.84 C 333.06 379.69 326.93 376.66 321.98 377.39 C 317.57 380.93 314.17 385.58 310.70 389.99 C 310.39 395.87 310.95 401.76 310.38 407.63 C 303.87 408.52 299.07 402.82 293.09 401.40 C 286.93 404.58 280.67 407.58 274.46 410.65 C 273.43 413.05 274.44 416.70 271.33 417.69 C 268.11 419.57 264.74 416.96 261.98 415.43 C 256.49 417.66 250.94 419.78 245.67 422.52 C 244.65 425.90 244.19 429.92 241.28 432.28 C 236.03 433.75 232.30 428.32 229.75 424.56 C 214.96 426.86 199.92 426.12 185.00 426.30 C 171.28 426.71 158.04 422.53 144.84 419.42 C 140.45 418.44 138.15 423.03 134.81 424.81 C 132.17 425.54 130.92 422.77 129.95 420.88 C 127.85 417.17 126.60 412.62 122.73 410.29 C 118.43 406.43 112.80 404.85 107.75 402.28 C 103.05 399.91 98.27 397.73 93.62 395.26 C 89.98 392.94 85.58 395.16 81.59 394.57 C 80.52 389.27 82.75 384.15 82.71 378.88 C 78.89 376.23 75.74 372.79 72.45 369.54 C 69.78 366.70 66.39 364.32 65.13 360.46 C 59.48 361.69 53.55 361.90 47.93 360.41 C 49.59 355.76 51.89 351.37 53.49 346.71 C 54.69 343.58 52.28 340.82 50.98 338.19 C 48.89 334.80 47.48 331.03 45.21 327.75 C 39.54 325.84 32.76 325.17 28.61 320.37 C 26.35 313.64 33.81 309.69 36.75 304.73 C 37.06 300.40 35.50 296.24 34.92 292.00 C 33.57 283.29 32.05 274.58 31.47 265.77 C 26.19 263.09 21.37 258.67 19.93 252.73 C 17.88 245.45 21.13 237.73 26.77 233.01 C 24.58 230.60 21.99 228.26 21.25 224.94 C 19.97 219.71 19.87 213.71 23.05 209.10 C 27.28 202.47 35.62 200.47 40.52 194.51 C 44.15 190.35 48.53 186.75 51.46 182.05 C 51.62 177.99 50.35 173.95 51.12 169.90 C 51.96 161.98 55.90 153.98 62.93 149.82 C 68.13 146.36 74.47 145.63 80.55 145.33 C 82.64 144.26 84.05 142.23 85.85 140.76 C 90.08 136.86 95.95 135.25 99.99 131.14 C 102.12 124.29 102.43 117.00 104.31 110.10 C 104.43 108.20 106.51 108.17 107.83 108.89 C 113.34 111.68 118.03 115.77 123.25 119.02 C 125.15 120.55 127.36 118.78 129.29 118.25 C 132.53 116.77 136.10 116.04 139.21 114.26 C 143.69 108.79 144.51 101.29 148.70 95.67 C 149.92 93.52 152.25 95.39 153.51 96.53 C 157.03 100.60 160.11 105.05 162.81 109.72 C 169.19 109.40 175.50 108.15 181.92 108.34 Z" fill="#020202" opacity="1.00" stroke="#020202" stroke-width="0.25"/>
<path d="M 193.73 105.85 C 194.65 106.71 195.52 107.62 196.35 108.57 C 194.94 108.70 193.54 108.83 192.14 108.95 C 192.66 107.91 193.19 106.88 193.73 105.85 Z" fill="#9a9a9a" opacity="1.00" stroke="#9a9a9a" stroke-width="0.25"/>
<path d="M 229.46 109.39 C 230.01 109.35 231.11 109.29 231.66 109.26 C 231.69 110.46 231.72 111.66 231.74 112.87 C 230.50 112.64 229.26 112.40 228.03 112.16 C 228.50 111.24 228.98 110.31 229.46 109.39 Z" fill="#868686" opacity="1.00" stroke="#868686" stroke-width="0.25"/>
<path d="M 136.06 138.95 C 142.68 130.20 147.63 120.42 151.96 110.38 C 157.94 117.53 163.00 125.70 170.38 131.52 C 170.02 128.35 169.36 125.23 168.67 122.11 C 195.29 119.92 222.60 120.63 248.24 128.80 C 249.79 129.42 250.07 131.46 250.98 132.72 C 257.28 129.73 262.87 125.49 269.08 122.35 C 270.23 130.45 270.59 139.02 274.51 146.38 C 274.77 143.21 274.74 140.02 274.76 136.85 C 305.70 149.33 331.17 172.67 350.57 199.44 C 354.59 204.35 357.51 210.57 363.31 213.67 C 369.24 216.95 375.55 219.72 382.27 220.91 C 391.31 222.46 400.53 222.54 409.68 222.42 C 413.44 227.83 416.96 233.57 418.34 240.11 C 411.40 240.53 404.36 240.84 397.78 243.32 C 398.06 243.09 398.62 242.61 398.91 242.37 C 378.94 242.75 358.97 243.67 339.00 243.12 C 327.41 242.42 315.68 243.13 304.26 240.58 C 300.51 239.61 296.20 239.58 293.05 237.10 C 291.86 230.59 291.87 223.86 292.36 217.27 C 292.95 209.46 296.33 201.61 294.19 193.78 C 291.77 187.45 283.86 186.83 278.08 187.74 C 267.05 189.81 256.79 194.70 246.93 199.90 C 238.21 204.39 229.80 209.97 223.68 217.76 C 228.61 218.94 233.42 221.40 236.22 225.79 C 243.40 236.41 245.07 250.90 239.67 262.64 C 237.99 266.48 234.08 268.41 230.70 270.48 C 226.75 269.61 222.68 269.45 218.65 269.36 C 218.65 269.78 218.66 270.63 218.66 271.06 C 212.45 259.19 206.62 246.59 205.80 233.01 C 205.30 226.40 205.57 219.52 208.35 213.38 C 210.08 209.04 213.54 205.65 215.09 201.22 C 208.98 201.32 205.81 207.47 203.06 212.05 C 195.26 226.81 198.92 244.41 204.71 259.20 C 198.80 255.96 193.59 251.56 187.54 248.55 C 173.85 241.56 158.30 238.73 143.01 239.17 C 127.62 238.85 112.09 241.72 98.05 248.09 C 92.77 250.48 87.96 253.80 83.66 257.68 C 78.00 263.02 74.28 270.32 67.62 274.62 C 61.28 278.77 54.29 282.68 46.51 282.79 C 45.92 276.50 44.19 270.21 44.60 263.89 C 56.32 263.18 67.60 256.81 73.76 246.74 C 77.06 241.88 77.80 235.26 75.02 230.01 C 72.65 226.01 67.64 225.09 63.74 223.18 C 55.68 220.11 48.13 214.84 44.12 207.01 C 45.15 205.12 47.11 204.02 48.72 202.71 C 57.51 196.38 63.13 186.87 68.98 177.98 C 77.87 164.53 89.32 152.69 102.82 143.83 C 104.73 142.43 107.22 141.55 108.57 139.55 C 109.84 134.05 109.45 128.32 110.45 122.77 C 115.65 125.40 120.67 128.37 125.71 131.29 C 129.67 134.29 133.93 129.87 137.92 128.97 C 137.41 132.31 136.60 135.61 136.06 138.95 Z" fill="#929293" opacity="1.00" stroke="#929293" stroke-width="0.25"/>
<path d="M 194.59 137.59 C 198.05 133.23 200.86 128.24 205.37 124.83 C 209.59 135.94 213.55 147.55 213.67 159.55 C 211.79 158.02 209.95 156.31 209.00 154.02 C 206.54 148.48 204.81 142.65 202.98 136.87 C 197.94 141.38 194.66 147.92 188.33 150.87 C 188.22 145.67 191.79 141.60 194.59 137.59 Z" fill="#020203" opacity="1.00" stroke="#020203" stroke-width="0.25"/>
<path d="M 349.58 134.57 C 354.73 132.53 360.12 130.82 365.71 130.63 C 362.12 134.67 356.95 136.58 352.57 139.55 C 346.20 143.78 339.78 148.20 334.82 154.08 C 339.59 152.44 343.77 149.54 348.16 147.12 C 356.51 142.31 365.33 138.38 374.12 134.45 C 375.09 138.11 375.84 141.86 375.83 145.67 C 365.40 150.26 354.98 155.10 345.61 161.67 C 344.44 162.43 343.65 163.61 342.82 164.69 C 346.88 163.85 350.65 162.10 354.50 160.60 C 361.68 157.92 368.94 155.43 376.30 153.27 C 376.37 157.50 376.59 161.73 376.27 165.95 C 374.88 168.00 372.13 168.14 370.01 168.99 C 363.39 171.27 356.37 172.84 350.46 176.74 C 358.71 176.84 366.80 174.75 374.93 173.57 C 374.54 176.55 375.06 179.82 373.65 182.58 C 368.97 183.01 364.25 183.10 359.58 183.73 C 355.60 184.28 351.99 186.17 348.08 186.98 C 342.53 180.85 337.72 174.02 331.90 168.10 C 327.67 163.62 323.11 159.48 318.60 155.30 C 317.49 154.51 318.76 153.09 319.56 152.62 C 328.85 145.51 338.69 138.97 349.58 134.57 Z" fill="#fdf709" opacity="1.00" stroke="#fdf709" stroke-width="0.25"/>
<path d="M 296.44 134.21 C 297.44 132.71 299.93 134.43 298.79 135.88 C 297.78 137.36 295.29 135.65 296.44 134.21 Z" fill="#555555" opacity="1.00" stroke="#555555" stroke-width="0.25"/>
<path d="M 278.25 160.20 C 283.86 157.49 289.49 154.27 295.89 154.04 C 296.13 158.63 295.09 163.16 293.31 167.37 C 291.01 172.87 289.11 179.27 283.63 182.48 C 283.56 174.99 287.10 168.21 288.97 161.11 C 284.75 162.60 280.61 164.35 276.28 165.48 C 274.63 165.75 272.62 166.27 271.21 165.07 C 273.01 162.77 275.72 161.51 278.25 160.20 Z" fill="#020204" opacity="1.00" stroke="#020204" stroke-width="0.25"/>
<path d="M 58.90 177.62 C 54.54 166.75 64.47 154.03 75.89 154.42 C 72.91 158.24 69.08 161.29 66.15 165.15 C 63.21 168.99 61.48 173.56 58.90 177.62 Z" fill="#fcfcfc" opacity="1.00" stroke="#fcfcfc" stroke-width="0.25"/>
<path d="M 240.41 158.26 C 242.06 157.13 244.50 158.35 244.67 160.33 C 245.07 164.13 244.09 167.90 243.32 171.60 C 242.05 176.73 240.72 182.19 236.87 186.06 C 236.14 179.76 237.56 173.50 237.41 167.20 C 230.49 170.72 223.56 175.22 215.46 174.91 C 216.40 172.83 217.94 171.11 219.87 169.90 C 226.40 165.50 233.11 161.25 240.41 158.26 Z" fill="#020204" opacity="1.00" stroke="#020204" stroke-width="0.25"/>
<path d="M 110.58 173.59 C 115.53 167.38 122.68 162.08 130.95 162.19 C 146.10 160.69 160.89 173.76 161.38 188.96 C 162.00 197.53 158.40 206.28 151.87 211.87 C 144.66 217.82 134.46 218.38 125.66 216.42 C 129.77 215.77 134.04 216.28 138.06 215.17 C 145.87 212.54 152.66 206.02 154.43 197.81 C 155.96 192.20 154.96 186.23 153.03 180.86 C 147.54 168.08 128.65 163.87 118.44 173.41 C 111.23 179.30 107.98 189.27 109.74 198.33 C 110.89 203.20 113.88 207.36 117.20 211.00 L 117.88 211.84 C 112.10 210.27 109.02 204.36 106.73 199.29 C 104.03 190.81 104.91 180.71 110.58 173.59 Z" fill="#020204" opacity="1.00" stroke="#020204" stroke-width="0.25"/>
<path d="M 118.44 173.41 C 128.65 163.87 147.54 168.08 153.03 180.86 C 154.96 186.23 155.96 192.20 154.43 197.81 C 152.66 206.02 145.87 212.54 138.06 215.17 C 130.99 215.73 122.84 216.16 117.20 211.00 C 113.88 207.36 110.89 203.20 109.74 198.33 C 107.98 189.27 111.23 179.30 118.44 173.41 Z" fill="#fcfcfd" opacity="1.00" stroke="#fcfcfd" stroke-width="0.25"/>
<path d="M 124.09 176.86 C 131.00 173.76 140.02 175.02 145.18 180.80 C 151.39 187.52 150.46 199.50 142.82 204.79 C 138.74 208.01 133.27 208.31 128.34 207.45 C 121.77 205.82 117.07 199.54 116.44 192.94 C 116.21 190.22 116.27 187.49 116.41 184.77 C 118.32 187.20 119.45 190.94 123.02 191.27 C 128.19 191.50 132.36 184.96 129.47 180.47 C 128.07 178.78 125.88 178.05 124.09 176.86 Z" fill="#010102" opacity="1.00" stroke="#010102" stroke-width="0.25"/>
<path d="M 79.01 189.04 C 80.80 187.09 83.65 187.35 86.04 186.96 C 85.71 187.41 85.04 188.31 84.71 188.76 C 82.77 191.11 80.93 193.87 81.10 197.06 C 80.82 200.89 83.22 204.14 85.70 206.78 C 85.32 203.84 84.34 200.99 84.32 198.01 C 84.21 194.74 85.37 191.63 85.96 188.46 C 86.43 188.45 87.36 188.42 87.83 188.41 C 87.26 191.56 86.19 194.76 86.84 197.98 C 87.47 201.15 88.41 204.25 88.88 207.46 C 86.14 207.75 83.05 209.04 80.50 207.44 C 74.71 203.34 73.82 193.98 79.01 189.04 Z" fill="#030304" opacity="1.00" stroke="#030304" stroke-width="0.25"/>
<path d="M 246.93 199.90 C 256.79 194.70 267.05 189.81 278.08 187.74 C 283.86 186.83 291.77 187.45 294.19 193.78 C 296.33 201.61 292.95 209.46 292.36 217.27 C 291.87 223.86 291.86 230.59 293.05 237.10 C 296.20 239.58 300.51 239.61 304.26 240.58 C 315.68 243.13 327.41 242.42 339.00 243.12 C 358.97 243.67 378.94 242.75 398.91 242.37 C 398.62 242.61 398.06 243.09 397.78 243.32 C 396.42 243.70 395.06 244.05 393.69 244.36 C 377.42 246.25 361.09 247.81 344.72 248.49 C 328.25 248.54 311.47 249.60 295.37 245.43 C 295.50 248.37 295.62 251.31 295.57 254.25 C 295.73 262.74 293.06 271.81 286.52 277.54 C 278.38 283.66 267.47 283.09 257.91 281.77 C 248.02 280.48 238.86 276.08 230.70 270.48 C 234.08 268.41 237.99 266.48 239.67 262.64 C 245.07 250.90 243.40 236.41 236.22 225.79 C 233.42 221.40 228.61 218.94 223.68 217.76 C 229.80 209.97 238.21 204.39 246.93 199.90 Z" fill="#020203" opacity="1.00" stroke="#020203" stroke-width="0.25"/>
<path d="M 81.10 197.06 C 80.93 193.87 82.77 191.11 84.71 188.76 L 85.96 188.46 C 85.37 191.63 84.21 194.74 84.32 198.01 C 84.34 200.99 85.32 203.84 85.70 206.78 C 83.22 204.14 80.82 200.89 81.10 197.06 Z" fill="#fdfdfd" opacity="1.00" stroke="#fdfdfd" stroke-width="0.25"/>
<path d="M 263.71 201.74 C 269.27 199.02 275.25 197.35 281.11 195.46 C 281.25 195.70 281.51 196.18 281.65 196.42 C 277.38 198.69 273.26 201.40 268.70 203.05 C 267.03 202.63 265.38 202.15 263.71 201.74 Z" fill="#dce24c" opacity="1.00" stroke="#dce24c" stroke-width="0.25"/>
<path d="M 466.37 200.23 C 472.16 198.29 478.66 196.83 484.66 198.66 C 484.38 200.19 484.09 201.73 483.77 203.25 C 465.90 207.66 449.08 215.39 432.60 223.44 C 432.49 223.89 432.27 224.78 432.16 225.23 L 431.92 226.08 C 442.87 223.62 453.54 220.13 464.38 217.25 C 470.27 215.74 476.09 213.73 482.18 213.20 C 482.66 217.44 481.80 221.65 480.96 225.79 C 469.66 228.33 458.43 231.22 447.00 233.17 C 442.95 233.94 438.59 234.45 435.24 237.09 C 434.85 237.39 434.08 238.00 433.69 238.31 C 437.35 238.61 441.02 238.16 444.68 238.36 C 456.51 240.05 468.28 237.43 480.06 236.66 C 480.91 242.18 481.67 247.72 482.34 253.27 C 467.17 255.97 451.81 251.78 436.66 254.06 C 435.97 254.18 434.59 254.40 433.90 254.52 C 441.23 256.79 448.81 258.11 456.20 260.15 C 454.74 260.16 453.29 260.20 451.85 260.26 C 462.10 263.07 472.74 263.83 483.25 265.13 C 483.58 269.95 484.01 274.91 482.65 279.63 C 478.84 279.76 475.16 278.65 471.53 277.67 C 463.66 275.41 455.54 274.03 447.84 271.22 C 442.96 269.44 438.00 267.58 432.74 267.57 L 431.58 267.51 C 440.22 273.80 450.23 277.86 459.97 282.13 C 464.39 284.15 469.15 285.28 473.61 287.21 C 475.56 288.46 477.39 289.87 479.23 291.29 C 470.62 291.14 462.27 288.74 454.20 285.90 C 447.18 283.35 440.03 281.06 433.34 277.69 C 428.04 275.02 422.55 272.76 416.98 270.75 C 421.82 262.00 425.32 252.10 424.25 241.96 C 423.90 234.56 421.04 227.65 417.65 221.17 C 430.54 214.80 443.77 209.03 457.43 204.49 C 460.56 203.41 463.48 201.83 466.37 200.23 Z" fill="#fef807" opacity="1.00" stroke="#fef807" stroke-width="0.25"/>
<path d="M 414.96 220.59 C 432.00 213.63 448.37 204.54 466.37 200.23 C 463.48 201.83 460.56 203.41 457.43 204.49 C 443.77 209.03 430.54 214.80 417.65 221.17 C 421.04 227.65 423.90 234.56 424.25 241.96 C 425.32 252.10 421.82 262.00 416.98 270.75 C 422.55 272.76 428.04 275.02 433.34 277.69 C 440.03 281.06 447.18 283.35 454.20 285.90 C 462.27 288.74 470.62 291.14 479.23 291.29 C 477.39 289.87 475.56 288.46 473.61 287.21 C 476.51 287.80 479.34 288.68 482.05 289.86 C 481.26 290.83 480.43 291.77 479.56 292.68 C 474.76 293.09 470.00 292.01 465.38 290.83 C 452.46 287.39 440.03 282.35 427.89 276.80 C 423.44 274.73 418.86 272.95 414.23 271.35 C 420.70 262.06 424.86 250.46 422.68 239.07 C 421.90 232.30 418.46 226.29 414.96 220.59 Z" fill="#fbfb6e" opacity="1.00" stroke="#fbfb6e" stroke-width="0.25"/>
<path d="M 236.06 216.10 C 244.67 210.25 254.04 205.52 263.71 201.74 C 265.38 202.15 267.03 202.63 268.70 203.05 C 262.52 207.20 255.76 210.47 249.80 214.96 C 252.30 214.70 254.74 214.08 257.05 213.10 C 266.82 209.23 276.42 204.77 286.73 202.47 C 286.72 205.87 286.02 209.19 285.27 212.48 C 273.69 216.85 261.38 219.90 250.80 226.50 C 261.81 225.49 272.28 221.25 283.31 220.13 C 283.27 223.40 283.49 226.69 283.18 229.96 C 282.24 231.49 280.33 231.47 278.79 231.83 C 270.95 233.09 263.24 235.04 255.64 237.33 C 265.13 239.35 274.76 237.26 284.33 237.60 C 285.01 241.52 285.75 245.43 285.91 249.42 C 278.72 249.56 271.49 249.31 264.34 250.19 C 261.34 250.65 257.96 249.92 255.40 251.91 C 265.79 253.65 276.31 254.63 286.84 254.65 C 286.81 257.98 286.61 261.38 285.41 264.53 C 281.66 265.43 277.85 263.94 274.11 263.59 C 266.80 262.77 259.56 261.04 252.17 261.23 C 258.35 265.39 265.96 266.41 272.74 269.20 C 273.86 269.99 274.96 270.83 276.06 271.66 C 275.39 272.70 274.72 273.74 274.06 274.78 C 263.52 275.33 252.19 274.10 243.64 267.34 C 249.75 260.16 250.10 250.10 248.98 241.19 C 247.79 231.64 243.20 222.57 236.06 216.10 Z" fill="#fdf60a" opacity="1.00" stroke="#fdf60a" stroke-width="0.25"/>
<path d="M 311.76 208.83 C 316.65 207.04 321.84 208.44 326.78 209.30 C 330.46 209.94 333.86 211.59 337.10 213.42 C 332.95 219.96 326.84 225.70 319.46 228.34 C 321.29 223.20 325.13 219.25 328.29 214.94 C 328.12 214.66 327.76 214.10 327.58 213.82 C 322.21 212.59 316.16 212.64 311.76 208.83 Z" fill="#020204" opacity="1.00" stroke="#020204" stroke-width="0.25"/>
<path d="M 32.20 211.40 C 35.66 211.14 39.14 211.19 42.60 211.46 C 46.01 215.39 49.62 219.29 54.25 221.82 C 59.18 225.03 64.92 226.51 70.20 228.94 C 72.60 229.90 73.71 232.57 73.63 235.02 C 74.27 241.55 69.66 247.03 65.15 251.15 C 58.11 257.82 47.78 260.11 38.41 258.24 C 34.65 257.11 30.44 255.37 28.71 251.55 C 27.77 248.39 28.60 245.11 29.76 242.13 C 34.01 243.21 37.90 245.49 42.28 246.07 C 50.80 247.19 59.88 244.15 65.63 237.68 C 59.79 236.69 53.73 236.49 48.25 234.00 C 41.26 230.86 33.03 227.52 29.90 219.92 C 28.50 216.85 30.27 213.74 32.20 211.40 Z" fill="#fcfcfc" opacity="1.00" stroke="#fcfcfc" stroke-width="0.25"/>
<path d="M 432.16 225.23 C 449.28 220.22 466.31 214.58 483.83 211.12 C 483.54 216.50 483.58 221.93 482.48 227.23 C 466.71 230.38 451.02 233.92 435.24 237.09 C 438.59 234.45 442.95 233.94 447.00 233.17 C 458.43 231.22 469.66 228.33 480.96 225.79 C 481.80 221.65 482.66 217.44 482.18 213.20 C 476.09 213.73 470.27 215.74 464.38 217.25 C 453.54 220.13 442.87 223.62 431.92 226.08 L 432.16 225.23 Z" fill="#fbfb6e" opacity="1.00" stroke="#fbfb6e" stroke-width="0.25"/>
<path d="M 444.68 238.36 C 457.00 236.96 469.43 236.43 481.71 234.58 C 481.41 241.65 483.80 248.42 484.47 255.39 C 468.53 255.46 452.54 255.69 436.66 254.06 C 451.81 251.78 467.17 255.97 482.34 253.27 C 481.67 247.72 480.91 242.18 480.06 236.66 C 468.28 237.43 456.51 240.05 444.68 238.36 Z" fill="#dce24c" opacity="1.00" stroke="#dce24c" stroke-width="0.25"/>
<path d="M 397.78 243.32 C 404.36 240.84 411.40 240.53 418.34 240.11 C 418.37 240.91 418.44 242.52 418.47 243.32 C 412.62 245.88 406.26 246.74 400.06 248.05 C 396.36 248.60 392.61 248.35 388.91 247.97 C 391.38 247.19 393.84 246.38 396.30 245.56 C 395.65 245.26 394.34 244.66 393.69 244.36 C 395.06 244.05 396.42 243.70 397.78 243.32 Z" fill="#aeaeae" opacity="1.00" stroke="#aeaeae" stroke-width="0.25"/>
<path d="M 400.06 248.05 C 406.26 246.74 412.62 245.88 418.47 243.32 C 418.46 252.88 414.86 262.41 408.69 269.70 C 395.11 268.75 380.42 269.10 368.54 276.61 C 361.78 280.67 357.74 287.69 354.05 294.40 C 352.69 294.30 351.33 294.19 349.97 294.07 C 350.99 293.39 352.03 292.73 353.07 292.07 C 351.62 289.15 350.18 286.21 348.75 283.28 C 346.90 284.10 345.04 284.92 343.19 285.74 C 342.87 285.20 342.23 284.12 341.91 283.57 C 345.27 282.83 348.23 280.99 351.22 279.37 C 345.36 274.37 340.32 268.40 333.88 264.11 C 332.46 262.96 330.55 263.36 328.88 263.26 C 330.65 269.01 335.51 272.91 339.52 277.11 C 332.83 277.41 326.22 278.79 319.87 280.87 C 315.77 281.98 311.80 283.47 307.82 284.93 C 308.89 285.88 309.97 286.82 311.05 287.77 C 308.49 290.88 305.70 293.83 302.34 296.08 C 301.81 296.08 301.28 296.09 300.76 296.11 C 301.24 298.97 301.33 301.89 300.87 304.76 C 298.93 299.68 297.33 294.44 294.88 289.58 C 294.34 289.49 293.26 289.32 292.72 289.24 C 292.39 295.74 294.30 302.03 295.60 308.33 C 288.87 306.03 281.98 302.89 274.69 304.38 C 280.48 307.85 286.52 310.89 292.44 314.13 C 288.85 314.11 285.32 313.30 282.14 311.60 C 280.72 315.58 279.43 319.63 277.49 323.40 C 275.14 327.73 271.79 331.44 268.18 334.77 C 268.00 334.55 267.62 334.11 267.43 333.89 C 266.91 333.27 265.87 332.01 265.35 331.39 C 265.02 331.57 264.35 331.93 264.02 332.12 C 258.94 334.02 260.05 340.12 259.02 344.39 C 258.65 348.34 256.12 351.60 252.80 353.60 C 251.31 353.37 249.83 353.08 248.36 352.74 C 243.48 350.46 238.07 349.94 232.85 351.28 C 232.75 350.57 232.54 349.16 232.43 348.45 C 231.39 348.39 230.35 348.33 229.31 348.28 C 229.36 349.48 229.40 350.68 229.44 351.89 C 229.46 352.42 229.50 353.47 229.51 354.00 C 229.89 354.69 230.26 355.39 230.64 356.09 C 230.28 356.26 229.55 356.59 229.19 356.75 C 227.24 354.37 225.34 351.95 223.36 349.60 C 222.14 348.21 220.88 346.86 219.52 345.62 C 218.23 345.16 216.91 344.78 215.60 344.40 C 216.11 346.33 216.64 348.27 217.17 350.21 C 215.83 350.68 214.49 351.16 213.15 351.65 C 212.04 350.82 210.92 349.99 209.81 349.16 C 208.85 350.29 206.02 350.98 207.36 352.81 C 207.75 353.76 208.15 354.71 208.55 355.67 C 205.50 355.34 201.81 353.92 199.11 355.90 C 198.39 358.09 199.48 360.49 198.78 362.67 C 195.85 364.49 192.49 365.38 189.22 366.36 C 189.34 365.98 189.58 365.24 189.70 364.86 C 192.01 357.45 195.86 350.22 195.72 342.29 C 189.68 345.31 190.28 353.84 185.40 357.77 C 181.61 352.82 179.26 345.90 173.00 343.54 C 174.67 351.41 179.60 357.96 182.95 365.13 C 182.64 364.93 182.03 364.53 181.72 364.33 C 180.73 363.74 179.71 363.22 178.69 362.71 C 178.24 362.88 177.79 363.05 177.34 363.24 C 176.49 362.65 175.65 362.07 174.82 361.49 C 172.12 362.48 169.49 363.69 167.09 365.29 C 166.73 365.50 166.03 365.91 165.68 366.12 C 165.33 365.17 165.00 364.22 164.69 363.27 C 169.22 361.83 173.86 360.34 177.56 357.23 C 171.89 357.89 164.89 357.76 161.62 363.39 C 159.72 365.41 158.20 367.73 157.10 370.27 C 153.98 374.59 151.35 379.22 148.58 383.77 C 146.81 382.64 146.37 380.38 145.32 378.69 C 143.43 374.52 140.54 370.89 136.98 368.02 C 137.51 373.55 139.62 378.74 141.57 383.89 C 139.96 382.21 138.24 380.64 136.54 379.05 C 135.72 379.76 134.91 380.46 134.10 381.18 C 134.93 382.57 135.77 383.96 136.61 385.36 C 131.77 385.14 127.13 383.72 122.80 381.61 C 121.25 383.89 119.69 386.17 118.10 388.44 C 114.59 386.15 111.02 383.92 107.68 381.38 C 106.29 380.41 104.88 379.02 103.03 379.39 C 98.91 379.74 94.94 381.09 91.02 382.35 C 92.09 375.78 92.84 369.16 92.79 362.49 C 92.21 362.48 91.04 362.47 90.46 362.47 C 89.74 363.58 89.02 364.70 88.29 365.81 C 84.30 361.88 78.91 359.22 76.09 354.23 C 77.48 353.35 78.88 352.47 80.26 351.57 C 73.47 350.66 66.82 352.64 60.07 352.46 C 62.15 346.30 65.82 340.70 66.98 334.23 C 65.64 334.29 64.31 334.37 62.98 334.47 C 59.74 329.16 56.68 323.76 53.53 318.40 C 49.62 317.69 45.64 317.68 41.70 317.35 C 43.98 312.77 47.87 309.32 50.55 305.02 C 49.49 298.94 48.29 292.88 47.37 286.77 C 54.41 286.36 60.98 283.48 66.96 279.93 C 76.66 274.18 82.02 263.54 91.57 257.58 C 104.16 250.21 118.49 246.30 132.89 244.48 C 147.11 242.63 161.56 244.77 175.28 248.64 C 186.66 252.02 197.11 258.18 205.98 266.03 C 208.54 268.46 211.02 271.00 213.75 273.26 C 217.70 276.44 221.11 280.65 226.21 282.01 C 223.97 278.17 220.88 274.91 218.66 271.06 C 218.66 270.63 218.65 269.78 218.65 269.36 C 222.68 269.45 226.75 269.61 230.70 270.48 C 238.86 276.08 248.02 280.48 257.91 281.77 C 267.47 283.09 278.38 283.66 286.52 277.54 C 293.06 271.81 295.73 262.74 295.57 254.25 C 304.34 255.26 313.19 255.09 322.00 255.11 C 341.70 254.77 361.46 254.50 381.05 252.12 C 387.51 251.41 393.79 249.69 400.06 248.05 Z" fill="#fcfcfc" opacity="1.00" stroke="#fcfcfc" stroke-width="0.25"/>
<path d="M 344.72 248.49 C 361.09 247.81 377.42 246.25 393.69 244.36 C 394.34 244.66 395.65 245.26 396.30 245.56 C 393.84 246.38 391.38 247.19 388.91 247.97 C 392.61 248.35 396.36 248.60 400.06 248.05 C 393.79 249.69 387.51 251.41 381.05 252.12 C 361.46 254.50 341.70 254.77 322.00 255.11 C 313.19 255.09 304.34 255.26 295.57 254.25 C 295.62 251.31 295.50 248.37 295.37 245.43 C 311.47 249.60 328.25 248.54 344.72 248.49 Z" fill="#d7d7d9" opacity="1.00" stroke="#d7d7d9" stroke-width="0.25"/>
<path d="M 130.22 250.26 C 130.74 250.38 131.80 250.61 132.33 250.73 C 132.48 251.70 132.62 252.68 132.77 253.65 C 132.14 253.66 130.88 253.69 130.24 253.70 C 130.23 252.55 130.22 251.41 130.22 250.26 Z" fill="#a1a1a1" opacity="1.00" stroke="#a1a1a1" stroke-width="0.25"/>
<path d="M 156.14 252.04 C 157.51 252.48 159.38 252.42 159.91 254.07 C 163.34 260.66 167.43 267.13 169.07 274.45 C 162.38 275.51 155.79 273.58 149.50 271.51 C 147.01 270.58 144.33 269.50 142.86 267.15 C 148.73 264.53 155.00 266.13 160.83 267.92 C 159.66 262.50 156.48 257.62 156.14 252.04 Z" fill="#030303" opacity="1.00" stroke="#030303" stroke-width="0.25"/>
<path d="M 178.30 252.10 C 178.98 253.19 179.52 254.36 180.11 255.50 C 179.31 255.51 177.70 255.52 176.89 255.53 C 177.36 254.38 177.82 253.24 178.30 252.10 Z" fill="#89898b" opacity="1.00" stroke="#89898b" stroke-width="0.25"/>
<path d="M 386.05 262.63 C 386.41 261.09 386.59 258.61 388.85 259.34 C 391.54 259.06 390.12 262.32 390.32 263.93 C 388.89 263.50 387.46 263.07 386.05 262.63 Z" fill="#868686" opacity="1.00" stroke="#868686" stroke-width="0.25"/>
<path d="M 451.85 260.26 C 453.29 260.20 454.74 260.16 456.20 260.15 C 465.94 260.92 475.49 263.43 485.27 263.97 C 485.27 269.90 484.71 275.81 484.48 281.74 C 466.84 278.65 449.62 273.49 432.74 267.57 C 438.00 267.58 442.96 269.44 447.84 271.22 C 455.54 274.03 463.66 275.41 471.53 277.67 C 475.16 278.65 478.84 279.76 482.65 279.63 C 484.01 274.91 483.58 269.95 483.25 265.13 C 472.74 263.83 462.10 263.07 451.85 260.26 Z" fill="#fbfb6e" opacity="1.00" stroke="#fbfb6e" stroke-width="0.25"/>
<path d="M 405.25 260.80 C 407.53 260.29 408.67 262.63 409.76 264.17 C 408.00 264.18 406.24 264.17 404.49 264.12 C 404.68 263.29 405.06 261.63 405.25 260.80 Z" fill="#b5b5b4" opacity="1.00" stroke="#b5b5b4" stroke-width="0.25"/>
<path d="M 354.29 262.31 C 355.29 260.81 357.79 262.51 356.63 263.96 C 355.63 265.45 353.10 263.76 354.29 262.31 Z" fill="#b3b3b3" opacity="1.00" stroke="#b3b3b3" stroke-width="0.25"/>
<path d="M 378.42 264.12 C 378.05 260.06 382.26 262.72 384.29 263.32 C 382.51 264.13 380.29 265.60 378.42 264.12 Z" fill="#787878" opacity="1.00" stroke="#787878" stroke-width="0.25"/>
<path d="M 117.01 263.30 C 117.63 263.32 118.87 263.36 119.48 263.38 C 118.71 271.04 117.96 278.71 117.24 286.38 C 113.42 285.54 110.75 282.51 108.29 279.70 C 105.02 275.77 101.76 271.64 100.03 266.77 C 105.00 268.97 108.17 273.56 112.05 277.16 C 113.81 272.58 115.04 267.81 117.01 263.30 Z" fill="#030303" opacity="1.00" stroke="#030303" stroke-width="0.25"/>
<path d="M 318.11 263.19 C 319.73 262.66 320.29 263.21 319.77 264.84 C 318.14 265.36 317.58 264.81 318.11 263.19 Z" fill="#c3c3c3" opacity="1.00" stroke="#c3c3c3" stroke-width="0.25"/>
<path d="M 328.88 263.26 C 330.55 263.36 332.46 262.96 333.88 264.11 C 340.32 268.40 345.36 274.37 351.22 279.37 C 348.23 280.99 345.27 282.83 341.91 283.57 C 334.41 284.50 327.15 282.23 319.87 280.87 C 326.22 278.79 332.83 277.41 339.52 277.11 C 335.51 272.91 330.65 269.01 328.88 263.26 Z" fill="#030303" opacity="1.00" stroke="#030303" stroke-width="0.25"/>
<path d="M 359.84 262.52 C 361.83 262.84 363.59 263.76 365.10 265.10 C 363.82 265.79 362.55 266.47 361.21 267.02 C 360.16 265.75 360.15 264.05 359.84 262.52 Z" fill="#a1a1a1" opacity="1.00" stroke="#a1a1a1" stroke-width="0.25"/>
<path d="M 342.10 264.33 C 343.96 263.71 345.13 266.70 343.00 267.13 C 341.19 267.82 340.09 264.69 342.10 264.33 Z" fill="#646464" opacity="1.00" stroke="#646464" stroke-width="0.25"/>
<path d="M 191.17 268.42 C 193.85 268.26 194.16 271.45 194.96 273.29 C 193.16 273.45 190.26 274.95 189.30 272.59 C 188.06 271.05 189.00 268.22 191.17 268.42 Z" fill="#959595" opacity="1.00" stroke="#959595" stroke-width="0.25"/>
<path d="M 272.74 269.20 C 275.69 269.70 278.57 270.50 281.46 271.29 C 279.24 272.93 276.68 273.97 274.06 274.78 C 274.72 273.74 275.39 272.70 276.06 271.66 C 274.96 270.83 273.86 269.99 272.74 269.20 Z" fill="#fbfb6e" opacity="1.00" stroke="#fbfb6e" stroke-width="0.25"/>
<path d="M 181.01 270.94 C 183.00 271.51 183.51 273.01 182.97 274.91 C 181.93 274.65 180.93 274.28 179.98 273.80 C 180.26 272.82 180.60 271.86 181.01 270.94 Z" fill="#cbcbcb" opacity="1.00" stroke="#cbcbcb" stroke-width="0.25"/>
<path d="M 82.07 271.83 C 83.61 271.98 85.16 272.14 86.70 272.30 C 86.69 272.92 86.68 274.17 86.68 274.79 C 85.19 274.85 83.71 274.90 82.23 274.96 C 82.19 274.18 82.11 272.62 82.07 271.83 Z" fill="#b1b1b1" opacity="1.00" stroke="#b1b1b1" stroke-width="0.25"/>
<path d="M 350.09 271.84 C 351.06 272.35 352.03 272.87 353.00 273.40 C 352.75 274.58 351.89 275.48 351.24 276.46 C 350.82 274.93 350.43 273.38 350.09 271.84 Z" fill="#d2d2d2" opacity="1.00" stroke="#d2d2d2" stroke-width="0.25"/>
<path d="M 136.92 278.48 C 137.21 276.23 138.23 274.34 140.66 273.99 C 140.40 275.55 140.09 277.09 139.77 278.64 C 139.06 278.60 137.63 278.52 136.92 278.48 Z" fill="#5b5b5b" opacity="1.00" stroke="#5b5b5b" stroke-width="0.25"/>
<path d="M 296.79 274.38 C 298.86 274.42 301.02 274.11 303.03 274.79 C 303.37 275.79 303.67 276.80 303.94 277.83 C 302.72 278.08 301.51 278.36 300.28 278.47 C 298.87 277.33 297.86 275.81 296.79 274.38 Z" fill="#696969" opacity="1.00" stroke="#696969" stroke-width="0.25"/>
<path d="M 356.14 277.19 C 356.74 277.27 357.93 277.44 358.53 277.52 C 358.62 278.94 358.70 280.35 358.80 281.77 C 358.21 281.72 357.04 281.62 356.45 281.57 C 356.34 280.11 356.24 278.65 356.14 277.19 Z" fill="#696969" opacity="1.00" stroke="#696969" stroke-width="0.25"/>
<path d="M 144.04 279.91 C 145.51 280.07 146.99 280.24 148.46 280.43 C 147.17 281.46 145.83 282.45 144.47 283.40 C 144.36 282.53 144.15 280.78 144.04 279.91 Z" fill="#cccccc" opacity="1.00" stroke="#cccccc" stroke-width="0.25"/>
<path d="M 197.27 281.20 C 199.52 281.01 200.15 283.38 199.27 285.08 C 198.23 285.45 197.18 285.81 196.12 286.14 C 196.42 284.48 196.68 282.79 197.27 281.20 Z" fill="#8d8d8d" opacity="1.00" stroke="#8d8d8d" stroke-width="0.25"/>
<path d="M 319.87 280.87 C 327.15 282.23 334.41 284.50 341.91 283.57 C 342.23 284.12 342.87 285.20 343.19 285.74 C 345.04 284.92 346.90 284.10 348.75 283.28 C 350.18 286.21 351.62 289.15 353.07 292.07 C 352.03 292.73 350.99 293.39 349.97 294.07 C 351.33 294.19 352.69 294.30 354.05 294.40 C 352.43 294.86 350.75 295.05 349.13 295.47 C 353.95 299.24 357.50 304.38 360.46 309.69 C 356.28 309.78 352.02 309.44 347.94 310.54 C 345.52 317.02 344.32 323.91 342.12 330.48 C 339.68 329.81 337.27 329.09 334.85 328.38 C 338.43 335.01 341.77 341.78 345.45 348.36 C 340.06 347.28 334.63 348.48 329.21 348.52 C 325.94 348.49 326.03 352.48 324.34 354.38 C 318.52 361.82 311.92 368.64 304.86 374.91 C 303.69 376.41 301.74 375.57 300.15 375.60 C 300.18 382.52 301.32 389.37 301.69 396.28 C 294.33 392.24 286.39 389.40 278.32 387.16 C 278.79 388.80 279.32 390.43 279.88 392.06 C 269.35 397.35 258.56 402.11 247.33 405.73 C 245.87 405.04 244.36 404.47 242.82 404.00 C 240.64 410.06 238.64 416.28 237.98 422.72 C 234.13 418.28 230.93 413.03 225.95 409.75 C 217.57 410.69 209.29 412.42 200.92 413.46 C 201.23 408.72 203.58 404.39 203.61 399.63 C 198.14 404.63 195.40 411.82 191.90 418.20 C 186.58 412.54 185.45 402.72 177.74 399.34 C 178.41 403.19 179.92 406.81 180.85 410.60 C 170.41 409.79 159.77 408.39 150.07 404.23 C 151.00 402.73 151.93 401.24 152.79 399.71 C 146.21 402.43 140.45 407.09 135.80 412.45 C 134.15 405.87 133.00 399.19 131.33 392.62 C 130.15 393.13 128.98 393.67 127.83 394.25 C 124.48 392.50 121.27 390.49 118.10 388.44 C 119.69 386.17 121.25 383.89 122.80 381.61 C 127.13 383.72 131.77 385.14 136.61 385.36 C 135.77 383.96 134.93 382.57 134.10 381.18 C 134.91 380.46 135.72 379.76 136.54 379.05 C 138.24 380.64 139.96 382.21 141.57 383.89 C 143.39 387.93 145.08 392.04 147.22 395.94 C 149.19 393.61 150.84 391.02 152.10 388.24 C 154.80 382.35 157.84 376.54 159.29 370.19 C 158.74 370.21 157.64 370.25 157.10 370.27 C 158.20 367.73 159.72 365.41 161.62 363.39 C 164.89 357.76 171.89 357.89 177.56 357.23 C 173.86 360.34 169.22 361.83 164.69 363.27 C 165.00 364.22 165.33 365.17 165.68 366.12 C 166.68 368.07 168.49 369.30 170.34 370.37 C 170.52 368.56 170.68 366.76 170.85 364.96 C 169.59 365.05 168.34 365.16 167.09 365.29 C 169.49 363.69 172.12 362.48 174.82 361.49 C 175.65 362.07 176.49 362.65 177.34 363.24 C 177.79 363.05 178.24 362.88 178.69 362.71 C 179.71 363.22 180.73 363.74 181.72 364.33 C 182.03 364.53 182.64 364.93 182.95 365.13 C 184.13 366.23 185.35 367.35 186.88 367.95 C 188.01 367.10 188.90 366.00 189.70 364.86 C 189.58 365.24 189.34 365.98 189.22 366.36 C 192.49 365.38 195.85 364.49 198.78 362.67 C 199.48 360.49 198.39 358.09 199.11 355.90 C 201.81 353.92 205.50 355.34 208.55 355.67 C 208.15 354.71 207.75 353.76 207.36 352.81 C 208.79 352.85 210.23 352.93 211.67 352.91 C 211.20 351.97 210.27 350.10 209.81 349.16 C 210.92 349.99 212.04 350.82 213.15 351.65 C 214.49 351.16 215.83 350.68 217.17 350.21 C 216.64 348.27 216.11 346.33 215.60 344.40 C 216.91 344.78 218.23 345.16 219.52 345.62 C 219.21 347.31 217.35 349.48 219.14 350.85 C 220.28 353.10 222.11 350.39 223.36 349.60 C 225.34 351.95 227.24 354.37 229.19 356.75 C 229.55 356.59 230.28 356.26 230.64 356.09 C 230.26 355.39 229.89 354.69 229.51 354.00 C 229.50 353.47 229.46 352.42 229.44 351.89 C 230.58 351.68 231.71 351.47 232.85 351.28 C 238.07 349.94 243.48 350.46 248.36 352.74 C 247.84 353.49 246.79 355.00 246.27 355.76 C 247.81 356.47 249.30 357.34 250.92 357.88 C 251.88 356.62 252.35 355.09 252.80 353.60 C 256.12 351.60 258.65 348.34 259.02 344.39 C 260.05 340.12 258.94 334.02 264.02 332.12 C 263.70 333.50 263.45 334.91 263.19 336.31 C 264.61 335.52 266.02 334.71 267.43 333.89 C 267.62 334.11 268.00 334.55 268.18 334.77 C 271.79 331.44 275.14 327.73 277.49 323.40 C 279.43 319.63 280.72 315.58 282.14 311.60 C 285.32 313.30 288.85 314.11 292.44 314.13 C 296.03 315.06 299.72 315.67 303.44 315.27 C 302.89 311.69 302.03 308.18 300.87 304.76 C 301.33 301.89 301.24 298.97 300.76 296.11 C 301.28 296.09 301.81 296.08 302.34 296.08 C 305.70 293.83 308.49 290.88 311.05 287.77 C 309.97 286.82 308.89 285.88 307.82 284.93 C 311.80 283.47 315.77 281.98 319.87 280.87 Z" fill="#eeeeef" opacity="1.00" stroke="#eeeeef" stroke-width="0.25"/>
<path d="M 178.03 282.91 C 179.71 283.78 180.04 285.57 180.26 287.30 C 178.10 286.81 176.45 284.98 178.03 282.91 Z" fill="#cfcfcf" opacity="1.00" stroke="#cfcfcf" stroke-width="0.25"/>
<path d="M 68.47 288.40 C 69.85 286.97 71.50 285.85 73.09 284.68 C 74.80 287.55 73.89 290.64 72.57 293.45 C 70.70 292.34 67.82 291.10 68.47 288.40 Z" fill="#949494" opacity="1.00" stroke="#949494" stroke-width="0.25"/>
<path d="M 101.19 284.60 C 102.87 285.80 103.77 287.60 104.18 289.58 C 102.75 289.59 101.32 289.59 99.89 289.59 C 100.29 287.91 100.72 286.25 101.19 284.60 Z" fill="#898989" opacity="1.00" stroke="#898989" stroke-width="0.25"/>
<path d="M 260.38 286.39 C 261.70 286.43 263.02 286.48 264.34 286.55 C 263.06 287.81 261.78 289.08 260.43 290.27 C 260.41 288.97 260.39 287.68 260.38 286.39 Z" fill="#868686" opacity="1.00" stroke="#868686" stroke-width="0.25"/>
<path d="M 287.06 285.69 C 288.40 287.20 289.53 288.89 289.64 290.96 C 288.47 290.49 287.31 290.01 286.15 289.52 C 286.44 288.24 286.74 286.96 287.06 285.69 Z" fill="#767676" opacity="1.00" stroke="#767676" stroke-width="0.25"/>
<path d="M 184.26 286.24 C 185.63 287.48 186.63 289.03 187.33 290.73 C 186.14 290.55 184.95 290.36 183.77 290.16 C 183.89 289.18 184.14 287.22 184.26 286.24 Z" fill="#bfbfbf" opacity="1.00" stroke="#bfbfbf" stroke-width="0.25"/>
<path d="M 120.47 288.63 C 121.72 289.23 122.96 289.89 124.04 290.78 C 122.85 291.27 121.68 291.78 120.49 292.26 C 120.48 291.35 120.47 289.54 120.47 288.63 Z" fill="#868686" opacity="1.00" stroke="#868686" stroke-width="0.25"/>
<path d="M 79.23 292.90 C 78.75 290.70 81.00 288.90 83.07 289.78 C 83.14 291.59 82.85 293.38 82.78 295.19 C 81.47 294.60 78.88 295.02 79.23 292.90 Z" fill="#8d8d8d" opacity="1.00" stroke="#8d8d8d" stroke-width="0.25"/>
<path d="M 292.72 289.24 C 293.26 289.32 294.34 289.49 294.88 289.58 C 297.33 294.44 298.93 299.68 300.87 304.76 C 302.03 308.18 302.89 311.69 303.44 315.27 C 299.72 315.67 296.03 315.06 292.44 314.13 C 286.52 310.89 280.48 307.85 274.69 304.38 C 281.98 302.89 288.87 306.03 295.60 308.33 C 294.30 302.03 292.39 295.74 292.72 289.24 Z" fill="#030303" opacity="1.00" stroke="#030303" stroke-width="0.25"/>
<path d="M 142.41 291.49 C 143.43 291.35 144.45 291.36 145.47 291.52 C 146.11 293.53 145.61 295.62 143.84 296.85 C 141.23 296.73 140.34 292.29 142.41 291.49 Z" fill="#9a9a9a" opacity="1.00" stroke="#9a9a9a" stroke-width="0.25"/>
<path d="M 242.00 293.44 C 243.85 293.23 245.40 293.88 246.44 295.45 C 245.59 295.67 243.88 296.09 243.02 296.30 C 242.77 295.59 242.26 294.16 242.00 293.44 Z" fill="#c0c0c0" opacity="1.00" stroke="#c0c0c0" stroke-width="0.25"/>
<path d="M 307.49 292.75 C 308.73 293.08 310.00 293.32 311.22 293.75 C 311.74 295.08 312.11 296.47 312.45 297.86 C 310.76 297.88 309.07 297.90 307.38 297.92 C 307.42 296.19 307.45 294.47 307.49 292.75 Z" fill="#a1a1a1" opacity="1.00" stroke="#a1a1a1" stroke-width="0.25"/>
<path d="M 273.62 296.78 C 274.52 295.88 275.42 293.22 276.97 294.77 C 277.32 295.27 278.02 296.27 278.37 296.78 C 276.78 296.79 275.20 296.79 273.62 296.78 Z" fill="#d2d2d2" opacity="1.00" stroke="#d2d2d2" stroke-width="0.25"/>
<path d="M 204.92 295.96 C 205.51 295.60 206.71 294.89 207.30 294.53 C 207.07 303.51 205.02 312.32 202.66 320.96 C 198.43 321.33 196.64 316.40 194.35 313.67 C 190.24 308.66 188.12 301.66 182.17 298.45 C 183.95 298.26 185.88 297.25 187.51 298.49 C 191.59 300.25 193.58 304.46 196.14 307.82 C 197.13 308.98 197.83 310.82 199.60 310.89 C 201.30 305.89 202.76 300.79 204.92 295.96 Z" fill="#030305" opacity="1.00" stroke="#030305" stroke-width="0.25"/>
<path d="M 325.55 297.39 C 326.72 295.38 329.20 295.85 331.13 295.94 C 330.43 297.20 330.63 299.56 328.71 299.59 C 327.32 299.91 324.32 299.34 325.55 297.39 Z" fill="#99999b" opacity="1.00" stroke="#99999b" stroke-width="0.25"/>
<path d="M 370.10 295.08 C 374.83 295.62 379.56 296.37 384.34 296.41 C 384.48 298.42 384.60 300.43 384.73 302.45 C 381.07 302.26 377.40 302.12 373.75 302.42 C 377.31 305.36 381.63 307.14 385.91 308.76 C 385.72 311.17 385.43 313.56 385.07 315.95 C 381.02 315.50 376.92 314.50 373.30 312.60 C 370.06 309.89 367.69 306.26 365.37 302.77 C 366.08 299.81 368.56 297.65 370.10 295.08 Z" fill="#fbf40f" opacity="1.00" stroke="#fbf40f" stroke-width="0.25"/>
<path d="M 168.58 299.57 C 169.56 298.73 170.23 296.92 171.80 297.33 C 172.92 297.67 173.55 298.83 174.41 299.58 C 172.46 299.66 170.52 299.64 168.58 299.57 Z" fill="#696969" opacity="1.00" stroke="#696969" stroke-width="0.25"/>
<path d="M 72.47 297.24 C 76.87 301.65 77.46 308.37 80.17 313.79 C 84.58 310.27 86.97 304.60 92.24 302.15 C 91.37 306.65 88.80 310.52 86.53 314.41 C 84.15 318.03 82.10 322.69 77.70 324.16 C 74.79 315.52 72.11 306.45 72.47 297.24 Z" fill="#030303" opacity="1.00" stroke="#030303" stroke-width="0.25"/>
<path d="M 216.70 299.21 C 220.94 298.67 224.88 300.29 228.04 303.05 C 226.27 304.53 224.31 305.74 222.20 306.68 C 220.21 304.32 218.28 301.88 216.70 299.21 Z" fill="#b2b2b2" opacity="1.00" stroke="#b2b2b2" stroke-width="0.25"/>
<path d="M 251.99 306.41 C 251.75 302.24 255.18 299.76 258.82 298.80 C 258.10 301.45 257.25 304.06 256.49 306.71 C 254.99 306.61 253.49 306.50 251.99 306.41 Z" fill="#959595" opacity="1.00" stroke="#959595" stroke-width="0.25"/>
<path d="M 336.81 299.93 C 337.86 299.50 338.93 299.09 340.00 298.71 C 340.16 300.54 340.83 302.44 340.35 304.27 C 339.40 305.59 337.52 305.70 336.14 306.37 C 336.26 304.22 336.14 302.00 336.81 299.93 Z" fill="#a4a4a4" opacity="1.00" stroke="#a4a4a4" stroke-width="0.25"/>
<path d="M 115.30 301.29 C 116.75 300.11 118.42 302.64 116.94 303.65 C 115.48 304.82 113.82 302.28 115.30 301.29 Z" fill="#c6c6c6" opacity="1.00" stroke="#c6c6c6" stroke-width="0.25"/>
<path d="M 128.99 300.97 C 133.95 305.36 137.54 311.00 141.37 316.34 C 141.63 316.45 142.15 316.68 142.41 316.80 C 144.97 311.03 146.53 304.30 151.83 300.31 C 151.81 305.34 150.13 310.14 149.04 315.01 C 147.69 319.82 146.79 325.12 143.20 328.87 C 139.96 324.28 137.23 319.36 134.43 314.50 C 132.21 310.18 129.70 305.84 128.99 300.97 Z" fill="#030303" opacity="1.00" stroke="#030303" stroke-width="0.25"/>
<path d="M 325.29 304.41 C 327.49 303.34 327.50 306.49 327.78 307.91 C 328.14 309.32 326.22 309.80 325.17 309.81 C 324.66 308.14 323.44 305.65 325.29 304.41 Z" fill="#828284" opacity="1.00" stroke="#828284" stroke-width="0.25"/>
<path d="M 103.20 305.24 C 104.66 304.07 106.35 306.58 104.83 307.57 C 103.37 308.73 101.68 306.22 103.20 305.24 Z" fill="#b7b7b7" opacity="1.00" stroke="#b7b7b7" stroke-width="0.25"/>
<path d="M 110.91 306.44 C 112.25 306.51 113.77 306.07 114.86 307.10 C 115.02 308.71 113.36 309.06 112.29 309.77 C 111.95 308.94 111.26 307.27 110.91 306.44 Z" fill="#c8c8c8" opacity="1.00" stroke="#c8c8c8" stroke-width="0.25"/>
<path d="M 263.89 313.87 C 264.18 311.64 265.47 309.89 267.27 308.62 C 267.39 310.07 267.89 311.61 267.28 313.02 C 266.16 313.34 265.03 313.63 263.89 313.87 Z" fill="#787878" opacity="1.00" stroke="#787878" stroke-width="0.25"/>
<path d="M 114.79 312.50 C 115.57 312.48 117.14 312.44 117.92 312.41 C 117.62 314.10 117.28 315.77 116.92 317.45 C 116.11 315.84 115.42 314.18 114.79 312.50 Z" fill="#767676" opacity="1.00" stroke="#767676" stroke-width="0.25"/>
<path d="M 64.36 314.13 C 65.36 312.62 67.85 314.34 66.70 315.79 C 65.69 317.29 63.20 315.57 64.36 314.13 Z" fill="#aeaeae" opacity="1.00" stroke="#aeaeae" stroke-width="0.25"/>
<path d="M 95.02 315.02 C 96.61 314.00 98.51 314.91 100.21 315.04 C 99.38 316.79 98.86 319.00 96.97 319.92 C 95.32 320.92 93.36 320.08 91.60 320.01 C 92.43 318.18 93.06 315.96 95.02 315.02 Z" fill="#9f9f9f" opacity="1.00" stroke="#9f9f9f" stroke-width="0.25"/>
<path d="M 240.73 315.22 C 242.51 315.20 244.29 315.20 246.07 315.22 C 245.43 317.14 244.89 319.14 243.81 320.88 C 240.81 320.81 240.85 317.40 240.73 315.22 Z" fill="#9d9d9d" opacity="1.00" stroke="#9d9d9d" stroke-width="0.25"/>
<path d="M 359.53 316.97 C 363.89 316.47 368.21 315.16 372.63 315.35 C 375.79 317.71 378.99 320.08 381.87 322.80 C 379.71 324.12 377.18 325.61 374.62 324.36 C 369.50 322.10 364.12 320.23 359.53 316.97 Z" fill="#f9f91c" opacity="1.00" stroke="#f9f91c" stroke-width="0.25"/>
<path d="M 339.38 316.46 C 341.10 316.28 342.82 316.09 344.56 315.92 C 344.00 317.44 344.03 319.37 342.71 320.50 C 341.54 320.39 340.37 320.25 339.22 320.07 C 339.27 318.86 339.32 317.66 339.38 316.46 Z" fill="#a0a0a0" opacity="1.00" stroke="#a0a0a0" stroke-width="0.25"/>
<path d="M 164.59 317.80 C 165.74 317.49 166.89 317.22 168.07 317.00 C 167.54 318.45 167.38 321.79 165.09 321.06 C 163.33 321.05 164.63 318.80 164.59 317.80 Z" fill="#9a9a9a" opacity="1.00" stroke="#9a9a9a" stroke-width="0.25"/>
<path d="M 182.62 318.88 C 183.71 318.54 184.81 318.23 185.91 317.97 C 186.29 319.90 187.32 322.29 185.00 323.40 C 182.58 323.17 181.85 320.93 182.62 318.88 Z" fill="#949494" opacity="1.00" stroke="#949494" stroke-width="0.25"/>
<path d="M 221.71 322.35 C 222.50 319.35 225.13 318.03 228.00 317.68 C 227.10 319.59 226.15 321.48 225.26 323.40 C 224.37 323.13 222.60 322.61 221.71 322.35 Z" fill="#767676" opacity="1.00" stroke="#767676" stroke-width="0.25"/>
<path d="M 313.82 318.14 C 314.56 318.23 316.03 318.40 316.77 318.49 C 316.74 321.24 316.70 324.00 316.67 326.75 C 315.15 326.72 313.64 326.68 312.14 326.65 C 312.39 323.76 312.98 320.92 313.82 318.14 Z" fill="#949496" opacity="1.00" stroke="#949496" stroke-width="0.25"/>
<path d="M 207.68 325.00 C 208.44 322.98 209.42 319.22 212.33 320.72 C 212.53 321.87 212.52 323.05 212.35 324.21 C 210.82 324.63 209.23 324.75 207.68 325.00 Z" fill="#646464" opacity="1.00" stroke="#646464" stroke-width="0.25"/>
<path d="M 129.13 323.65 C 129.78 322.38 131.02 321.62 132.07 320.74 C 132.35 322.17 132.58 323.61 132.80 325.06 C 131.57 324.61 130.33 324.18 129.13 323.65 Z" fill="#919191" opacity="1.00" stroke="#919191" stroke-width="0.25"/>
<path d="M 249.44 341.58 C 250.83 334.41 249.90 326.77 252.83 319.94 C 253.17 320.31 253.84 321.05 254.18 321.42 C 255.75 329.18 255.55 337.14 255.38 345.01 C 255.41 347.02 254.88 348.96 254.37 350.89 C 251.29 350.38 248.36 349.07 246.10 346.91 C 240.62 341.73 236.04 335.69 231.79 329.49 C 233.68 329.62 235.72 329.51 237.35 330.67 C 241.92 333.67 245.52 337.83 249.44 341.58 Z" fill="#030303" opacity="1.00" stroke="#030303" stroke-width="0.25"/>
<path d="M 281.40 324.22 C 282.49 324.20 283.58 324.18 284.68 324.17 C 284.69 324.83 284.72 326.16 284.73 326.83 C 283.60 326.80 282.47 326.79 281.34 326.78 C 281.35 326.14 281.38 324.86 281.40 324.22 Z" fill="#777777" opacity="1.00" stroke="#777777" stroke-width="0.25"/>
<path d="M 327.18 326.30 C 328.40 325.59 329.79 325.28 331.13 324.89 C 330.32 326.11 330.59 329.78 328.38 328.53 C 327.51 328.05 327.11 327.31 327.18 326.30 Z" fill="#89898b" opacity="1.00" stroke="#89898b" stroke-width="0.25"/>
<path d="M 109.45 327.65 C 111.19 327.70 113.59 326.45 114.70 328.38 C 115.08 330.32 113.59 331.76 112.55 333.19 C 111.50 331.35 110.45 329.52 109.45 327.65 Z" fill="#878787" opacity="1.00" stroke="#878787" stroke-width="0.25"/>
<path d="M 90.22 329.07 C 92.82 328.67 96.68 332.63 93.89 334.90 C 90.70 337.85 86.81 331.24 90.22 329.07 Z" fill="#a1a1a1" opacity="1.00" stroke="#a1a1a1" stroke-width="0.25"/>
<path d="M 264.02 332.12 C 264.35 331.93 265.02 331.57 265.35 331.39 C 265.87 332.01 266.91 333.27 267.43 333.89 C 266.02 334.71 264.61 335.52 263.19 336.31 C 263.45 334.91 263.70 333.50 264.02 332.12 Z" fill="#c1c1c1" opacity="1.00" stroke="#c1c1c1" stroke-width="0.25"/>
<path d="M 272.41 332.51 C 274.65 331.73 278.70 332.96 277.14 335.99 C 275.68 335.88 274.00 336.11 272.76 335.19 C 271.80 334.23 269.74 332.47 272.41 332.51 Z" fill="#959595" opacity="1.00" stroke="#959595" stroke-width="0.25"/>
<path d="M 314.31 333.37 C 315.45 332.45 316.96 332.14 318.36 332.62 C 318.69 334.34 318.73 336.10 318.84 337.85 C 317.43 337.65 316.03 337.47 314.66 337.16 C 314.15 335.96 314.00 334.63 314.31 333.37 Z" fill="#9d9d9f" opacity="1.00" stroke="#9d9d9f" stroke-width="0.25"/>
<path d="M 295.26 333.93 C 297.22 333.60 299.20 333.40 301.18 333.13 C 300.25 335.78 298.13 337.32 295.31 337.36 C 295.30 336.51 295.27 334.79 295.26 333.93 Z" fill="#838384" opacity="1.00" stroke="#838384" stroke-width="0.25"/>
<path d="M 103.35 334.42 C 104.98 334.56 106.76 334.92 107.68 336.45 C 111.02 340.60 112.94 345.64 115.89 350.02 C 119.25 344.64 120.80 337.75 126.30 333.99 C 125.99 339.39 124.02 344.45 122.34 349.52 C 120.74 353.89 119.26 358.49 116.00 361.95 C 112.61 357.92 110.92 352.86 108.77 348.13 C 106.96 343.56 104.78 339.13 103.35 334.42 Z" fill="#030303" opacity="1.00" stroke="#030303" stroke-width="0.25"/>
<path d="M 183.32 338.53 C 186.07 337.55 186.09 341.55 185.34 343.23 C 183.98 343.55 182.59 343.69 181.21 343.86 C 181.58 342.06 180.88 339.00 183.32 338.53 Z" fill="#787878" opacity="1.00" stroke="#787878" stroke-width="0.25"/>
<path d="M 156.92 339.00 C 159.21 339.17 161.40 340.07 160.78 342.78 C 158.13 344.80 157.20 340.94 156.92 339.00 Z" fill="#767676" opacity="1.00" stroke="#767676" stroke-width="0.25"/>
<path d="M 319.86 340.80 C 322.57 340.09 325.29 339.47 328.05 338.98 C 328.09 340.61 328.20 342.24 328.10 343.88 C 325.79 345.56 322.82 344.20 320.26 343.99 C 320.16 343.19 319.96 341.60 319.86 340.80 Z" fill="#a3a3a5" opacity="1.00" stroke="#a3a3a5" stroke-width="0.25"/>
<path d="M 205.65 342.50 C 206.39 340.92 208.13 340.41 209.73 340.30 C 210.67 341.75 210.54 343.54 210.76 345.19 C 209.30 345.68 207.85 346.17 206.41 346.67 C 206.09 345.30 205.32 343.93 205.65 342.50 Z" fill="#777777" opacity="1.00" stroke="#777777" stroke-width="0.25"/>
<path d="M 81.59 344.97 C 83.29 344.01 85.37 340.18 87.21 342.66 C 88.47 343.73 87.65 345.72 87.95 347.18 C 85.77 346.63 83.64 345.90 81.59 344.97 Z" fill="#9a9a9a" opacity="1.00" stroke="#9a9a9a" stroke-width="0.25"/>
<path d="M 135.09 342.21 C 136.96 342.57 139.96 342.01 139.76 344.77 C 138.73 345.90 137.15 345.69 135.80 345.49 C 135.54 344.40 135.31 343.30 135.09 342.21 Z" fill="#9a9a9a" opacity="1.00" stroke="#9a9a9a" stroke-width="0.25"/>
<path d="M 295.12 342.23 C 295.73 342.25 296.95 342.28 297.56 342.30 C 300.38 351.24 302.89 360.36 303.98 369.70 C 293.21 366.60 282.47 361.71 274.91 353.19 C 283.08 353.82 290.07 358.47 297.52 361.39 C 296.56 355.02 295.05 348.71 295.12 342.23 Z" fill="#040405" opacity="1.00" stroke="#040405" stroke-width="0.25"/>
<path d="M 185.40 357.77 C 190.28 353.84 189.68 345.31 195.72 342.29 C 195.86 350.22 192.01 357.45 189.70 364.86 C 188.90 366.00 188.01 367.10 186.88 367.95 C 185.35 367.35 184.13 366.23 182.95 365.13 C 179.60 357.96 174.67 351.41 173.00 343.54 C 179.26 345.90 181.61 352.82 185.40 357.77 Z" fill="#040404" opacity="1.00" stroke="#040404" stroke-width="0.25"/>
<path d="M 140.74 348.79 C 142.44 347.39 144.13 345.96 146.00 344.81 C 147.31 345.66 147.58 347.27 148.14 348.62 C 146.15 349.40 144.16 350.16 142.16 350.88 C 141.80 350.36 141.10 349.32 140.74 348.79 Z" fill="#949494" opacity="1.00" stroke="#949494" stroke-width="0.25"/>
<path d="M 219.14 350.85 C 217.35 349.48 219.21 347.31 219.52 345.62 C 220.88 346.86 222.14 348.21 223.36 349.60 C 222.11 350.39 220.28 353.10 219.14 350.85 Z" fill="#919191" opacity="1.00" stroke="#919191" stroke-width="0.25"/>
<path d="M 229.31 348.28 C 230.35 348.33 231.39 348.39 232.43 348.45 C 232.54 349.16 232.75 350.57 232.85 351.28 C 231.71 351.47 230.58 351.68 229.44 351.89 C 229.40 350.68 229.36 349.48 229.31 348.28 Z" fill="#767676" opacity="1.00" stroke="#767676" stroke-width="0.25"/>
<path d="M 308.84 347.74 C 310.61 348.21 312.38 348.70 314.15 349.21 C 313.74 352.04 312.25 354.37 309.13 354.42 C 309.03 352.19 308.86 349.97 308.84 347.74 Z" fill="#9b9b9d" opacity="1.00" stroke="#9b9b9d" stroke-width="0.25"/>
<path d="M 207.36 352.81 C 206.02 350.98 208.85 350.29 209.81 349.16 C 210.27 350.10 211.20 351.97 211.67 352.91 C 210.23 352.93 208.79 352.85 207.36 352.81 Z" fill="#a0a0a0" opacity="1.00" stroke="#a0a0a0" stroke-width="0.25"/>
<path d="M 258.76 356.23 C 257.22 354.12 259.75 351.69 261.98 352.27 C 264.96 351.92 265.35 355.51 266.41 357.48 C 268.77 359.72 269.12 362.90 269.09 365.99 C 267.87 365.62 266.65 365.24 265.44 364.86 C 265.41 362.92 265.37 360.99 265.32 359.06 C 262.96 358.66 260.00 358.71 258.76 356.23 Z" fill="#9b9b9d" opacity="1.00" stroke="#9b9b9d" stroke-width="0.25"/>
<path d="M 248.36 352.74 C 249.83 353.08 251.31 353.37 252.80 353.60 C 252.35 355.09 251.88 356.62 250.92 357.88 C 249.30 357.34 247.81 356.47 246.27 355.76 C 246.79 355.00 247.84 353.49 248.36 352.74 Z" fill="#777779" opacity="1.00" stroke="#777779" stroke-width="0.25"/>
<path d="M 91.29 354.33 C 92.36 354.32 94.51 354.29 95.58 354.28 C 95.21 355.80 94.69 357.29 94.16 358.77 C 92.88 357.52 92.07 355.91 91.29 354.33 Z" fill="#bbbbbb" opacity="1.00" stroke="#bbbbbb" stroke-width="0.25"/>
<path d="M 157.14 356.36 C 158.34 356.17 159.55 356.00 160.76 355.85 C 160.66 356.65 160.47 358.27 160.38 359.08 C 159.12 358.52 156.75 358.29 157.14 356.36 Z" fill="#878787" opacity="1.00" stroke="#878787" stroke-width="0.25"/>
<path d="M 199.89 355.85 C 201.20 356.25 202.53 356.63 203.78 357.21 C 204.46 358.45 204.73 359.85 205.13 361.20 C 203.80 360.78 202.45 360.41 201.19 359.82 C 200.38 358.66 200.29 357.16 199.89 355.85 Z" fill="#b3b3b3" opacity="1.00" stroke="#b3b3b3" stroke-width="0.25"/>
<path d="M 224.61 359.64 C 226.16 359.62 227.71 359.82 229.24 360.10 C 228.13 361.51 227.41 363.94 225.23 363.81 C 224.08 362.68 224.45 361.05 224.61 359.64 Z" fill="#868686" opacity="1.00" stroke="#868686" stroke-width="0.25"/>
<path d="M 100.04 360.07 C 100.72 360.13 102.06 360.25 102.73 360.31 C 102.70 360.87 102.65 361.99 102.62 362.56 C 102.04 362.57 100.89 362.61 100.32 362.62 C 100.25 361.99 100.11 360.71 100.04 360.07 Z" fill="#696969" opacity="1.00" stroke="#696969" stroke-width="0.25"/>
<path d="M 109.46 364.17 C 108.93 361.90 112.80 361.82 113.60 363.43 C 113.70 365.23 112.62 366.79 111.97 368.41 C 111.04 367.08 109.08 366.03 109.46 364.17 Z" fill="#9a9a9a" opacity="1.00" stroke="#9a9a9a" stroke-width="0.25"/>
<path d="M 129.02 366.35 C 129.78 365.09 129.31 361.24 131.56 362.65 C 132.93 363.24 132.09 365.51 132.39 366.79 C 131.55 366.68 129.86 366.46 129.02 366.35 Z" fill="#868686" opacity="1.00" stroke="#868686" stroke-width="0.25"/>
<path d="M 167.09 365.29 C 168.34 365.16 169.59 365.05 170.85 364.96 C 170.68 366.76 170.52 368.56 170.34 370.37 C 168.49 369.30 166.68 368.07 165.68 366.12 C 166.03 365.91 166.73 365.50 167.09 365.29 Z" fill="#878787" opacity="1.00" stroke="#878787" stroke-width="0.25"/>
<path d="M 235.40 382.09 C 237.82 376.07 237.50 368.98 241.19 363.55 C 242.25 372.60 241.05 381.81 239.58 390.74 C 235.16 391.07 232.34 387.25 229.55 384.45 C 225.19 379.61 220.53 374.91 217.39 369.15 C 220.88 369.34 223.07 372.37 225.75 374.22 C 229.12 376.64 232.34 379.27 235.40 382.09 Z" fill="#030305" opacity="1.00" stroke="#030305" stroke-width="0.25"/>
<path d="M 94.77 369.01 C 97.55 367.97 100.34 366.94 103.20 366.17 C 101.23 368.49 97.53 372.72 94.77 369.01 Z" fill="#aeaeae" opacity="1.00" stroke="#aeaeae" stroke-width="0.25"/>
<path d="M 201.81 367.98 C 202.39 367.93 203.56 367.83 204.14 367.78 C 204.27 369.66 204.13 371.55 204.05 373.43 C 202.47 372.00 201.07 370.25 201.81 367.98 Z" fill="#8c8c8c" opacity="1.00" stroke="#8c8c8c" stroke-width="0.25"/>
<path d="M 283.08 368.12 C 283.84 368.28 285.36 368.59 286.12 368.75 C 285.37 370.01 284.54 371.22 283.71 372.43 C 283.47 370.99 283.27 369.55 283.08 368.12 Z" fill="#696969" opacity="1.00" stroke="#696969" stroke-width="0.25"/>
<path d="M 136.98 368.02 C 140.54 370.89 143.43 374.52 145.32 378.69 C 146.37 380.38 146.81 382.64 148.58 383.77 C 151.35 379.22 153.98 374.59 157.10 370.27 C 157.64 370.25 158.74 370.21 159.29 370.19 C 157.84 376.54 154.80 382.35 152.10 388.24 C 150.84 391.02 149.19 393.61 147.22 395.94 C 145.08 392.04 143.39 387.93 141.57 383.89 C 139.62 378.74 137.51 373.55 136.98 368.02 Z" fill="#030303" opacity="1.00" stroke="#030303" stroke-width="0.25"/>
<path d="M 131.15 370.51 C 132.65 371.16 134.32 371.67 135.34 373.05 C 134.31 374.42 132.27 374.12 130.79 374.67 C 130.88 373.63 131.06 371.55 131.15 370.51 Z" fill="#b5b5b5" opacity="1.00" stroke="#b5b5b5" stroke-width="0.25"/>
<path d="M 257.10 377.33 C 257.00 375.31 255.09 370.87 258.68 371.40 C 259.73 372.20 261.07 373.19 260.68 374.71 C 259.73 375.87 258.32 376.51 257.10 377.33 Z" fill="#909092" opacity="1.00" stroke="#909092" stroke-width="0.25"/>
<path d="M 102.69 373.53 C 104.01 373.39 105.32 373.25 106.64 373.12 C 106.65 373.87 106.68 375.36 106.69 376.11 C 105.15 376.16 103.60 376.22 102.07 376.40 C 102.22 375.69 102.54 374.25 102.69 373.53 Z" fill="#949494" opacity="1.00" stroke="#949494" stroke-width="0.25"/>
<path d="M 276.83 377.82 C 277.36 376.25 278.13 374.78 279.35 373.64 C 279.90 374.84 280.43 376.05 280.97 377.26 C 279.59 377.46 278.21 377.64 276.83 377.82 Z" fill="#767676" opacity="1.00" stroke="#767676" stroke-width="0.25"/>
<path d="M 176.17 374.83 C 178.07 375.21 179.96 375.59 181.86 375.95 C 181.81 376.70 181.70 378.20 181.65 378.95 C 179.82 379.27 178.00 379.60 176.17 379.91 C 176.16 378.21 176.16 376.52 176.17 374.83 Z" fill="#89898b" opacity="1.00" stroke="#89898b" stroke-width="0.25"/>
<path d="M 206.71 379.86 C 208.34 377.98 210.48 375.30 213.30 376.66 C 214.51 378.60 212.50 381.82 210.15 381.48 C 208.95 381.05 207.84 380.41 206.71 379.86 Z" fill="#9b9b9b" opacity="1.00" stroke="#9b9b9b" stroke-width="0.25"/>
<path d="M 114.71 377.61 C 115.91 377.42 117.14 377.42 118.34 377.62 C 119.37 380.55 117.03 383.09 114.12 383.22 C 114.21 381.34 114.29 379.44 114.71 377.61 Z" fill="#9d9d9d" opacity="1.00" stroke="#9d9d9d" stroke-width="0.25"/>
<path d="M 188.59 380.99 C 189.17 379.12 190.45 377.53 192.54 378.51 C 193.48 380.27 192.90 382.29 192.83 384.18 C 191.10 383.60 188.96 383.09 188.59 380.99 Z" fill="#828284" opacity="1.00" stroke="#828284" stroke-width="0.25"/>
<path d="M 287.42 379.23 C 288.49 379.35 290.04 379.18 290.60 380.35 C 290.59 382.14 290.22 383.91 289.94 385.69 C 288.05 385.74 286.16 385.78 284.28 385.85 C 285.22 383.60 286.10 381.30 287.42 379.23 Z" fill="#a6a6a7" opacity="1.00" stroke="#a6a6a7" stroke-width="0.25"/>
<path d="M 249.18 383.52 C 250.36 383.54 251.54 383.60 252.72 383.71 C 251.79 385.87 250.82 388.03 249.86 390.19 C 248.51 389.46 247.16 388.73 245.81 387.98 C 246.87 386.45 247.83 384.82 249.18 383.52 Z" fill="#afafb1" opacity="1.00" stroke="#afafb1" stroke-width="0.25"/>
<path d="M 271.21 382.88 C 272.65 382.56 274.07 383.02 275.33 383.72 C 275.61 384.95 275.63 386.23 275.57 387.50 C 273.74 387.77 271.88 387.76 270.03 387.78 C 270.23 386.11 270.02 384.23 271.21 382.88 Z" fill="#989899" opacity="1.00" stroke="#989899" stroke-width="0.25"/>
<path d="M 132.61 388.60 C 131.56 386.03 135.40 386.32 136.92 386.01 C 136.69 387.15 136.41 388.28 136.09 389.40 C 134.87 389.63 132.97 390.37 132.61 388.60 Z" fill="#3e3e40" opacity="1.00" stroke="#3e3e40" stroke-width="0.25"/>
<path d="M 221.08 388.07 C 221.16 385.23 224.96 386.45 226.02 388.02 C 227.58 389.92 225.96 392.11 225.09 393.89 C 223.61 392.10 221.38 390.54 221.08 388.07 Z" fill="#adadad" opacity="1.00" stroke="#adadad" stroke-width="0.25"/>
<path d="M 211.61 387.72 C 213.86 388.20 217.05 388.50 217.48 391.36 C 218.25 393.43 215.32 394.12 214.24 395.39 C 212.90 393.01 211.99 390.42 211.61 387.72 Z" fill="#b1b1b1" opacity="1.00" stroke="#b1b1b1" stroke-width="0.25"/>
<path d="M 255.91 392.99 C 255.71 390.23 258.94 390.56 260.76 390.08 C 260.51 391.97 261.13 394.26 259.66 395.77 C 257.82 396.27 255.36 395.24 255.91 392.99 Z" fill="#9c9c9e" opacity="1.00" stroke="#9c9c9e" stroke-width="0.25"/>
<path d="M 190.85 392.02 C 194.14 391.93 196.62 393.79 198.27 396.49 C 197.12 397.15 195.98 397.82 194.83 398.49 C 193.45 396.36 192.09 394.23 190.85 392.02 Z" fill="#b2b2b4" opacity="1.00" stroke="#b2b2b4" stroke-width="0.25"/>
<path d="M 166.77 395.80 C 168.56 395.53 170.34 395.26 172.13 395.01 C 172.08 396.59 172.12 398.18 171.90 399.76 C 170.86 400.75 169.65 401.53 168.46 402.34 C 167.89 400.16 167.33 397.98 166.77 395.80 Z" fill="#b8b8b8" opacity="1.00" stroke="#b8b8b8" stroke-width="0.25"/>
<path d="M 230.45 397.30 C 233.85 396.19 236.42 400.20 237.32 402.99 C 237.61 406.75 232.22 406.82 230.13 404.89 C 228.50 402.82 227.93 398.92 230.45 397.30 Z" fill="#b0b0b2" opacity="1.00" stroke="#b0b0b2" stroke-width="0.25"/>
<path d="M 222.39 403.43 C 223.49 403.39 224.60 403.36 225.71 403.33 C 225.69 404.50 225.68 405.67 225.66 406.84 C 224.15 406.61 222.63 406.39 221.12 406.15 C 221.54 405.24 221.96 404.33 222.39 403.43 Z" fill="#9a9a9b" opacity="1.00" stroke="#9a9a9b" stroke-width="0.25"/>
</svg>